PathFileType	4	(X/Y/Z)	Demo_SinglePerson_0-995.trc
DataRate	CameraRate	NumFrames	NumMarkers	Units	OrigDataRate	OrigDataStartFrame	OrigNumFrames
30	30	8	22	m	30	124	995
Frame#	Time	Hip			RHip			RKnee			RAnkle			RBigToe			RSmallToe			RHeel			LHip			LKnee			LAnkle			LBigToe			LSmallToe			LHeel			Neck			Head			Nose			RShoulder			RElbow			RWrist			LShoulder			LElbow			LWrist		
		X1	Y1	Z1	X2	Y2	Z2	X3	Y3	Z3	X4	Y4	Z4	X5	Y5	Z5	X6	Y6	Z6	X7	Y7	Z7	X8	Y8	Z8	X9	Y9	Z9	X10	Y10	Z10	X11	Y11	Z11	X12	Y12	Z12	X13	Y13	Z13	X14	Y14	Z14	X15	Y15	Z15	X16	Y16	Z16	X17	Y17	Z17	X18	Y18	Z18	X19	Y19	Z19	X20	Y20	Z20	X21	Y21	Z21	X22	Y22	Z22
124	4.133333333333334	0.2360559930287985	0.980031121174815	0.23678045483173338	0.22504591313086253	0.9879779224082464	0.3410432081489518	0.20667108943317855	0.5158075776094717	0.354450530785872	0.2048203891224982	0.11167003646812301	0.3602208412015432	0.3747570559631346	0.05083453406512766	0.3745270939776906	0.35383675326225095	0.05196676604179578	0.4226998941835547	0.17809789706493945	0.04339889749277642	0.34073862627923246	0.23321365421841045	0.9849310016031779	0.11411089388193343	0.22901118757694572	0.5132797018750639	0.10771336306315867	0.24282547211316166	0.11242267045361841	0.10364896050955813	0.43426889522433987	0.0316944691013877	0.06444082907135766	0.38268171643097565	0.031446030337753186	0.0159105173061688	0.2200211879730649	0.04287333273589891	0.1286373556506034	0.23130600641035873	1.549141413490133	0.22236714431426952	0.38523449277403443	1.8227452324815785	0.20532851782627956	0.39555590217985753	1.7029079786519425	0.22914365686469237	0.21976197393855368	1.5170114394826095	0.41255747188312786	0.3001590281449175	1.7231453067096965	0.5536010956190793	0.3810410637642474	1.9535763998109965	0.5249184291730601	0.20718582178356135	1.523695864123763	0.04675856286323826	0.2828307176570088	1.7556419491118016	-0.08104635681625492	0.34674243236279934	1.9547922537102584	-0.05711334009633609
125	4.166666666666667	0.234764173314169	0.9789319210812699	0.23468880068678472	0.22627886783619633	0.989221761957408	0.34272376389532944	0.20306910669461753	0.5133445923823964	0.3570971990298169	0.2060932324426722	0.11025418453034244	0.36127054112933377	0.3762600646169521	0.049459345467458324	0.37577751559795103	0.3549338374859078	0.05204220267791158	0.4201243549515659	0.17939279432516575	0.04437387909397013	0.34373894444376724	0.2296164691318542	0.9839794488750951	0.11585977882979298	0.22748356117199986	0.5125069376135164	0.1055932022954884	0.24129144026804356	0.11180188347799556	0.10206366621311265	0.43285494233492	0.03360720686143189	0.06465307559062097	0.3778396819915623	0.03196511049572745	0.0118125961794572	0.21868326621089226	0.04002711486498197	0.12900201144175732	0.23235825369875082	1.550279160107133	0.22120463109216085	0.38380085527149377	1.8234723313718786	0.2038383884505148	0.3967930767289742	1.7061395304634615	0.229175047513187	0.21857425129475017	1.5185400205842416	0.4082926033197728	0.298302283467424	1.7240256944512455	0.5578100661638902	0.3769728846806905	1.949925073443023	0.52688298789269	0.2057286470864008	1.522516101893081	0.04576327544620386	0.2841248326599075	1.7567790506632246	-0.07975920817487304	0.3445986517457438	1.9545977396573135	-0.061328170115802084
126	4.2	0.23714926178005627	0.9809822660719527	0.23485237260532382	0.2236560999173081	0.98897726746394	0.3432622691186749	0.20521014993338765	0.5145344114411484	0.3568425348338303	0.2058995071741221	0.10941408751136747	0.3590023835187564	0.3787340253879287	0.047794196734216324	0.37583234393259624	0.3550761187794933	0.049438662120889695	0.4213715066013006	0.17915305381770658	0.041072824824137155	0.33953479487252525	0.23145875314184342	0.9859108493813654	0.10841880449072652	0.22799027483356613	0.5119190473713994	0.10981730726283714	0.24174239674222148	0.1106569958148128	0.10525498562678581	0.4362623073075762	0.033399485174691816	0.06842642077890024	0.38440714329657283	0.03135851168227547	0.015887772790864393	0.21896571450376312	0.04324488022071361	0.131954070043666	0.2300939342369711	1.5504390037057885	0.22450206746254836	0.38405073250963434	1.8242069912972014	0.20689991893930534	0.394353704423327	1.7042796908386084	0.23088329264202143	0.2160981217959701	1.5138853433821013	0.41205368994914077	0.3032567198521005	1.7237661449512174	0.5539825660510873	0.379314974167453	1.950154265066442	0.5298710109764699	0.20821294968195625	1.5213868282179708	0.0452351441539724	0.2820906737200246	1.7572448938003722	-0.0795252228693029	0.34579011770504764	1.9581757745675816	-0.057262266196050564
127	4.233333333333333	0.23714603695573042	0.9789283554669348	0.23831805783325108	0.22604337232590224	0.9891345309098492	0.3429027006226533	0.20532029459276313	0.5162437143166719	0.35374874768317693	0.2034358402092092	0.11141352621506208	0.36056837629454647	0.37880419486238315	0.04875104001263176	0.37470447779425525	0.3553483174745498	0.04787135741831307	0.4185522893044639	0.17662666180303507	0.04503376123280839	0.33942561767954604	0.2314794331903542	0.9838314847805585	0.11172188142588688	0.2302030823356918	0.5133731147768168	0.10989167297027264	0.24119769785130443	0.1121732849956141	0.10351813683624722	0.4357918369231031	0.03274833943641675	0.06547996742824107	0.3833690401558024	0.03309872223027372	0.011151467141337487	0.22118890696063911	0.04172625492184658	0.1314279505434703	0.23237704014126317	1.5492864559642163	0.22462925848806387	0.3813983750764882	1.8244358470915856	0.20677658146544367	0.3914595203972884	1.7046178063337334	0.22457612549988226	0.22053959773058715	1.5176109069615544	0.412903763467773	0.30319007186862224	1.7261649494648559	0.5576982371974575	0.3780278095502004	1.9478519265591852	0.5224279790745892	0.2054377828203424	1.5234048555293804	0.045399679317253284	0.2841051399754263	1.7564518477291458	-0.07904821981754498	0.3448905864393204	1.956925361365539	-0.05872578641873513
128	4.266666666666667	0.23496574645798068	0.9789832195498668	0.2348440629158991	0.22633515112721633	0.9890514516833736	0.3428086228631208	0.205595256405251	0.5156120090623348	0.3531557188579733	0.20614595211955786	0.10952572442723234	0.3633779724022658	0.37853586336450457	0.04748370589187534	0.37432297338983295	0.3549502802668318	0.04913683919517249	0.41991658236890217	0.1770155801230245	0.04617557867889498	0.34148388238960947	0.23209164420234835	0.9840670359461797	0.11232404491412283	0.22796875878291917	0.5109651047496252	0.10791267180038219	0.24188442695464987	0.11265146411985466	0.10608989528427716	0.43928755116032253	0.032813411906530865	0.07027146170536872	0.38475804069704983	0.028716659891032534	0.019235134930681134	0.21899594173970802	0.04102967850727321	0.12945045517404502	0.23280465317070456	1.5477984238881237	0.22555558720359115	0.3839609875349644	1.8245134075491947	0.20542935820251568	0.39440539852800505	1.7048662658236662	0.23515250611061642	0.21868291131689244	1.5154409815397283	0.41026307231936554	0.30300640868893625	1.723714846604262	0.5574988701322601	0.37973361774551745	1.954743200347515	0.5246195259689729	0.20614563789813067	1.5200442605902342	0.04565424961958741	0.2797905682909207	1.7552842375189572	-0.07897263768875713	0.345443123783183	1.9544521718445524	-0.058025927318512686
129	4.3	0.23594926960722482	0.9797705408977434	0.23623753375624507	0.22499173805151992	0.9877507742735789	0.3481964915509128	0.20413366723156393	0.5155519494724395	0.3571470517535075	0.20486920357496685	0.11079808928363932	0.35973436579938356	0.3748013594865391	0.05221605233848892	0.3762184492432262	0.3536698512580326	0.053079356873195545	0.4244727550599863	0.1780746286114065	0.04483514557086778	0.3422752069926794	0.2307928687788546	0.982831718066399	0.11749430282986036	0.2285854721894717	0.5127776151702741	0.10669651003401674	0.24245412140346748	0.1117662209764475	0.10311985457696067	0.4308319947601474	0.036614776405979	0.061463500636038046	0.3792244303578567	0.03184532318466491	0.012962763391441194	0.21971998355960604	0.04219720119412692	0.1281884077287385	0.2336794402898043	1.5497952005117968	0.2246316080820824	0.3824565971971581	1.8267312318349027	0.2022541046529767	0.3928145328108552	1.706975249856164	0.22583881550624196	0.2199051025255545	1.5174218010914333	0.41171708394691403	0.29973957452786454	1.72276985092937	0.5617892481008878	0.3763316475230437	1.9509626318733155	0.5271105286052477	0.20685417107103563	1.5219344390523049	0.04672564073517051	0.2834735245912687	1.7561532849407284	-0.07599280116295867	0.346114586774258	1.9568319582316647	-0.05873574034368297
130	4.333333333333333	0.2347424999178157	0.9778533967647893	0.23853528852920083	0.22597056838496257	0.988040678257337	0.3468166194569686	0.20513869148597497	0.5150476902937992	0.3564314786741005	0.20579948701997783	0.10720208900186046	0.356951323200708	0.37608234798664203	0.04894837068363739	0.3788919041709739	0.3551916129857693	0.0496086196274971	0.42144256800650076	0.17903664821788576	0.04327872214330024	0.33760173123045495	0.2319746642432404	0.9828517166159726	0.11559753435990312	0.227767704404049	0.5126197209826752	0.10921544880382544	0.24151996967623854	0.11104436735608897	0.10490390236262377	0.42965332043021925	0.033182311252005776	0.06120042052247209	0.38081161406491093	0.030364943144232007	0.01136429146274231	0.21864308776527228	0.04137671968706644	0.12987472172692885	0.23239830641540973	1.548245414792207	0.22608847126981868	0.38144668061648446	1.825226139471625	0.20535574291378775	0.39417913853188574	1.7059401508819747	0.2257741133004698	0.21817170631652805	1.5177452931014717	0.41459897063562673	0.3034666006253778	1.7250222466370249	0.5550456119093796	0.37442611073632287	1.9463869007626424	0.5322607287608598	0.20790052426552724	1.524606856301665	0.044718816994049455	0.2815744061881728	1.75432352860802	-0.08162785411086526	0.34553118937879246	1.9577672725153097	-0.05757271872104654
131	4.366666666666666	0.23589655230860695	0.9809594282033828	0.23681085433741664	0.22479168884464681	0.9888633564830189	0.341290323680532	0.2063055964504147	0.5157559582381299	0.3538905620827588	0.2070201605940911	0.1102662677914215	0.355851291314127	0.3746788349302492	0.047918602610619816	0.37466025127029134	0.3512955263958963	0.05180247983127056	0.4186658234402763	0.17772820697527072	0.04501972277167515	0.34118786469819945	0.23031267804208638	0.981738112189742	0.11016846790398303	0.22892448686384825	0.515587708575321	0.10785103295894709	0.24276975288012437	0.1141004150245426	0.10355878443202728	0.4313664529078249	0.03422275787113705	0.06127931116761351	0.37971866290503525	0.03397005128244412	0.012705592986923623	0.2198754900711888	0.044396184672891185	0.12857683902920894	0.23104281602823165	1.5490427864687606	0.2215854152328756	0.38016282932778706	1.823936466457443	0.2056242043596075	0.39300258195812054	1.7066298695476918	0.2312024660195794	0.21930909816744348	1.517074333410737	0.412226034923063	0.30161070490293884	1.7241086536754355	0.5557704160100287	0.3755793628246416	1.9500672026741728	0.5290133900260535	0.20711949705130842	1.525542269162231	0.04690768106654473	0.2810607385683809	1.753631609269855	-0.07863886533930729	0.34471949127474455	1.9547115663083545	-0.056425500517653694
